<svg id="Layer_1" data-name="Layer 1" xmlns="http://www.w3.org/2000/svg" viewBox="0 0 374.7 179.3"><defs><style>.cls-1{fill:#fff;}.cls-1,.cls-4,.cls-5{stroke:#000;stroke-miterlimit:10;}.cls-2{fill:#ffca74;}.cls-3{fill:#bf7600;}.cls-5{fill:#ff7f91;}</style></defs><path d="M482.1,250.5c0-1.9.8-5.5,2.6-10.7,1.1-3.1,2-4.7,2.9-4.8h.2a1.4,1.4,0,0,1,1.1.5,2.1,2.1,0,0,1,.6,1,24.4,24.4,0,0,1-.1,2.8l-.6,2.5a6.8,6.8,0,0,0-.5,1.7,50.5,50.5,0,0,1-3.2,7.2c-.6,1.1-1.3,1.7-1.9,1.7a1,1,0,0,1-.8-.4A2.8,2.8,0,0,1,482.1,250.5Z" transform="translate(-145.6 -216.8)"/><path d="M343.4,376.5a2.5,2.5,0,0,1-.3-1.3V361.8l-.2-11.9c-.1-5.4-.2-9.4-.2-12v-7.1a69.3,69.3,0,0,0-.2-8h-8.4a2,2,0,0,1-1.1-.3.9.9,0,0,1-.5-.9,1.5,1.5,0,0,1,.2-.8,4,4,0,0,1,1.2-.4l3-.2h15.7a2.3,2.3,0,0,1,1.3.3,1.5,1.5,0,0,1,.3,1c0,.8-.5,1.1-1.4,1.1h-7.4v52.5a3.1,3.1,0,0,1-.1,1,.6.6,0,0,1-.3.6.7.7,0,0,1-.7.4A1.4,1.4,0,0,1,343.4,376.5Z" transform="translate(-145.6 -216.8)"/><path d="M362.1,376.8a1.4,1.4,0,0,1-.7-1.3V374c0-.4-.1-.8-.1-1.3v-42c0-3.2,0-6-.1-8.3a2.4,2.4,0,0,1,.4-1.5,1,1,0,0,1,.9-.6h6.2a1.3,1.3,0,0,1,.8,1.3,1.4,1.4,0,0,1-.5,1,1.8,1.8,0,0,1-.9.4h-3.7c-.3,0-.6,0-.7.2a1,1,0,0,0-.2.7c0,2.3,0,4.4.1,6.3V346c0,.1,0,.1.1.1h4.2c.8,0,1.2.3,1.2,1a2.2,2.2,0,0,1-.2,1,1.2,1.2,0,0,1-.9.3h-4.3c-.2,0-.3.1-.3.4l.2,11c.1,3.5.1,7.5.1,11.9v2.8h7.1c.9,0,1.3.3,1.3,1s-.2,1.3-.7,1.4a13.7,13.7,0,0,1-3.6.3h-3.2A7.3,7.3,0,0,1,362.1,376.8Z" transform="translate(-145.6 -216.8)"/><path d="M393.4,376.3a1.2,1.2,0,0,1-.4-.9v-9.8c0-.6-1.3-1.2-3.8-1.7a34.2,34.2,0,0,0-6.3-.7c-.1,0-.3.4-.5,1.1s-.4,1.3-.5,1.7c-.6,2.5-1.3,5.3-1.9,8.3l-.4,1.6a.8.8,0,0,1-.8.6,1.3,1.3,0,0,1-1-.4.9.9,0,0,1-.5-.9h.1l.8-3.7q.9-3.6,1.5-6.9a36.4,36.4,0,0,1,1.2-5q.6-2.4,2.4-12.3l.4-2.5c1.3-7.7,2.2-12.5,2.7-14.5s.7-3,1.4-5.3a17.6,17.6,0,0,1,1-3c.5-.9.8-1.3,1.1-1.3a2.2,2.2,0,0,1,1.8.8,50.7,50.7,0,0,1,1.1,7.4c.5,4.5,1,9,1.4,13.6l1,12.4c0,2.2.1,5.4.4,9.8s.5,7.6.5,9.8v.3a4,4,0,0,1-.3,1.5c-.2.4-.6.6-1.4.6A1.8,1.8,0,0,1,393.4,376.3Zm-.5-14.8c0-3.1-.2-7.4-.5-12.7s-.7-10.1-1.1-14.2c-.1-1.8-.3-3.7-.6-5.8l-.3-2.9c0,.1-.1-.2-.2-.8v-.9a34.6,34.6,0,0,0-1.2,4.5c-.4,2-.7,4.3-1.1,6.9-1.2,7.5-2.3,13.1-3.1,16.8l-.7,2.5a23.8,23.8,0,0,0-1.1,5.7v.5a25,25,0,0,0,7.6,1h.9C392.4,362.2,392.9,362,392.9,361.5Z" transform="translate(-145.6 -216.8)"/><path d="M419.6,374.5v-6.7l-.2-6.7V355c0-1.8-.1-3.8-.1-6q0-10-.3-18.6v-2.7c-.2-2.9-.2-5.3-.2-7.2l.2-.3.3-.4c0-.1.2-.2.4-.3h.5a9.4,9.4,0,0,1,4.7,1.2,9.3,9.3,0,0,1,3.5,3.3,16.4,16.4,0,0,1,2.7,9.3,23.7,23.7,0,0,1-1.1,6.9,21.6,21.6,0,0,1-3.3,6.4,8.8,8.8,0,0,1-5,3.6v8.3l.2,4q.3,7.2.3,12.3a3.4,3.4,0,0,1-.3,1.7,1.6,1.6,0,0,1-1.4.6C419.9,377.1,419.6,376.2,419.6,374.5Zm3.3-27.7.6-.6.5-.5a16.8,16.8,0,0,0,4.9-12.2,18.5,18.5,0,0,0-1.7-7.8,7,7,0,0,0-2.6-3,7.8,7.8,0,0,0-4.1-1.1c0,2.9.2,7.1.5,12.8s.4,10,.4,12.8l.2.2A3.8,3.8,0,0,0,422.9,346.8Z" transform="translate(-145.6 -216.8)"/><path d="M441.5,376.7a2.1,2.1,0,0,1-.3-1.2v-3c0-3.1-.1-6.6-.4-10.6s-.3-7.7-.3-10.6-.1-7.9-.3-15.7-.5-12.2-.5-15.6a.6.6,0,0,1,.3-.6,1.3,1.3,0,0,1,.8-.3c.9,0,1.4.4,1.4,1.1,0,9.2.1,16.2.2,20.7l.4,13.4c0,2.1.1,5.6.4,10.3l.5,9.3a.2.2,0,0,0,.2.2h5.6c.7,0,1,.4,1,1.3a2.5,2.5,0,0,1-.2,1c-.2.3-.4.5-.7.5h-7.2A1.2,1.2,0,0,1,441.5,376.7Z" transform="translate(-145.6 -216.8)"/><path d="M471.8,376.3a1.2,1.2,0,0,1-.4-.9v-9.8c0-.6-1.3-1.2-3.8-1.7a34.2,34.2,0,0,0-6.3-.7c-.1,0-.3.4-.5,1.1s-.4,1.3-.5,1.7c-.7,2.5-1.3,5.3-2,8.3l-.3,1.6a.8.8,0,0,1-.8.6,1.7,1.7,0,0,1-1.1-.4,1,1,0,0,1-.4-.9h0l.9-3.7q.9-3.6,1.5-6.9c.5-2.6.9-4.2,1.1-5s1.2-5.7,2.4-12.3l.5-2.5c1.3-7.7,2.2-12.5,2.7-14.5s.7-3,1.3-5.3a18.2,18.2,0,0,1,1.1-3c.4-.9.8-1.3,1.1-1.3a1.9,1.9,0,0,1,1.7.8c.3.4.7,2.9,1.2,7.4s1,9,1.4,13.6l.9,12.4c0,2.2.2,5.4.5,9.8s.4,7.6.4,9.8v.3a3.9,3.9,0,0,1-.2,1.5c-.2.4-.7.6-1.4.6A1.8,1.8,0,0,1,471.8,376.3Zm-.5-14.8c0-3.1-.2-7.4-.5-12.7s-.7-10.1-1.1-14.2c-.1-1.8-.3-3.7-.6-5.8l-.3-2.9c0,.1-.1-.2-.2-.8v-.9a34.6,34.6,0,0,0-1.2,4.5q-.6,3-1.2,6.9-1.8,11.3-3,16.8l-.7,2.5a19.6,19.6,0,0,0-1.1,5.7v.5a24.8,24.8,0,0,0,7.5,1h1C470.8,362.2,471.3,362,471.3,361.5Z" transform="translate(-145.6 -216.8)"/><path d="M490.2,376.2a10.4,10.4,0,0,1-3.3-3.7c-.6-1.3-1.2-5.4-1.8-12.4s-.9-12.1-.9-15.5v-3.9c-.1-1.2-.1-2.5-.1-3.9s.2-5.1.4-7.7a21.3,21.3,0,0,1,.8-3.2,13,13,0,0,1,1.4-2.6,8.3,8.3,0,0,1,5-3.4,14.8,14.8,0,0,1,3.8-.4,5.5,5.5,0,0,1,2.9.8,2.3,2.3,0,0,1,1.4,1.9q0,.9-1.2.9a5.6,5.6,0,0,1-1.7-.6,5.3,5.3,0,0,0-2-.5,7.9,7.9,0,0,0-3.8.9,6.7,6.7,0,0,0-2.7,2.3,13.9,13.9,0,0,0-1.4,3.2,20.5,20.5,0,0,0-.7,4.2,29.9,29.9,0,0,0-.3,4.5v4.2c.1,1.2.1,2.5.1,3.9,0,3.5.3,8.5,1,15.2s1.4,10.6,2.1,11.6a5.6,5.6,0,0,0,2.6,2.2,9.4,9.4,0,0,0,3.7.7,6.6,6.6,0,0,0,5.3-2.1,1.7,1.7,0,0,1,1.4-.9c.4,0,.7.3.7,1a3.6,3.6,0,0,1-.9,2.4,5.1,5.1,0,0,1-2.2,1.5,12.7,12.7,0,0,1-5.2,1.1A8.2,8.2,0,0,1,490.2,376.2Z" transform="translate(-145.6 -216.8)"/><path d="M510.3,376.8a1.4,1.4,0,0,1-.7-1.3V374a5.3,5.3,0,0,1-.1-1.3v-42c0-3.2-.1-6-.2-8.3a3.3,3.3,0,0,1,.4-1.5,1.2,1.2,0,0,1,1-.6h6.2c.5.2.7.6.7,1.3a1.3,1.3,0,0,1-.4,1,1.8,1.8,0,0,1-1,.4h-3.7a.8.8,0,0,0-.7.2,1,1,0,0,0-.2.7c0,2.3.1,4.4.1,6.3V346c0,.1.1.1.2.1h4.2c.8,0,1.2.3,1.2,1a1.3,1.3,0,0,1-.3,1,1.2,1.2,0,0,1-.9.3h-4.2c-.2,0-.3.1-.3.4v11c.1,3.5.2,7.5.2,11.9v2.8h7c.9,0,1.4.3,1.4,1s-.3,1.3-.7,1.4a14.1,14.1,0,0,1-3.7.3h-3.1A6.9,6.9,0,0,1,510.3,376.8Z" transform="translate(-145.6 -216.8)"/><path d="M333.2,311.9c0-2.8.1-7.1.4-12.9l.2-12.7c0-4.7-.1-11.8-.3-21.1s-.5-15.4-.5-21.1,1-7.3,2.8-7.3c4.9,0,8.7,1.5,11.3,4.4s4,6.7,4,11.5-2.3,11-7,16.8q5.8,5.4,8.1,10.2a26.3,26.3,0,0,1,2.4,11.7,58.6,58.6,0,0,1-.3,6.6,22.1,22.1,0,0,1-1,4.6,14,14,0,0,1-2.2,3.8,16.1,16.1,0,0,1-3.6,3.1,43.4,43.4,0,0,1-5.7,2.8l-2.1.5a9.1,9.1,0,0,1-2.2.5h-.2C334.6,313.3,333.2,312.8,333.2,311.9Zm8.5-44.8a13.8,13.8,0,0,0,3.6-5.1,29.6,29.6,0,0,0,3-11.9,10.2,10.2,0,0,0-2.8-6.7,8.3,8.3,0,0,0-6.3-3.1c-1.9,0-2.8,1.4-2.8,4.3,0,4.5.1,8.6.2,12.2l.2,12.1h.4A6.6,6.6,0,0,0,341.7,267.1Zm3.1,40.2a14.5,14.5,0,0,0,4.9-5.5,15.9,15.9,0,0,0,1.8-7.4c0-12.1-3.1-19.3-9.3-21.8a15.8,15.8,0,0,0-2.9.5,10.9,10.9,0,0,1-2.5.7c.4,10.9.6,22.8.6,35.5h.6A11.6,11.6,0,0,0,344.8,307.3Z" transform="translate(-145.6 -216.8)"/><path d="M366.7,266.2v-4.1a89.1,89.1,0,0,1,1.1-14.7,32.7,32.7,0,0,1,1.8-6.5,10.9,10.9,0,0,1,3.1-4.1,7.2,7.2,0,0,1,4.8-1.7,10.6,10.6,0,0,1,4.8,1,9.3,9.3,0,0,1,3.6,2.5,13.9,13.9,0,0,1,2.2,3.7,45.9,45.9,0,0,1,1.5,4.4l.9,4.8a212.6,212.6,0,0,1,2.6,30.6v.4c0,3.3-.1,6.4-.2,9.3s-.6,6.9-1.2,10.6a18.8,18.8,0,0,1-1.3,4.7,19.9,19.9,0,0,1-2.1,4.1,7.2,7.2,0,0,1-6.4,3.6Q366.8,314.8,366.7,266.2Zm18.5,43.9a12.5,12.5,0,0,0,2.2-5.2,75.7,75.7,0,0,0,2.2-13.9c.1-3.6.2-7.1.2-10.6V269.9c-.1-3.6-.6-8.4-1.3-14.2a52.2,52.2,0,0,0-3.6-12.6,9.1,9.1,0,0,0-2.9-3.9,5.9,5.9,0,0,0-3.8-1.5,4.2,4.2,0,0,0-3.3,1.7,12.6,12.6,0,0,0-2.3,4.5,55.7,55.7,0,0,0-2.2,12.6q-.3,5-.3,10.2v4.9a139.9,139.9,0,0,0,1.4,17.2,90.9,90.9,0,0,0,2.2,11.5,27.5,27.5,0,0,0,3.5,8.1c1.4,2.4,3.1,3.6,5,3.6A3.8,3.8,0,0,0,385.2,310.1Z" transform="translate(-145.6 -216.8)"/><path d="M408.3,311.9q0-4.2.3-12.9l.2-12.7c0-4.7-.1-11.8-.3-21.1s-.4-15.4-.4-21.1.9-7.3,2.8-7.3c4.9,0,8.6,1.5,11.3,4.4s3.9,6.7,3.9,11.5-2.3,11-6.9,16.8a38.3,38.3,0,0,1,8.1,10.2,26.3,26.3,0,0,1,2.3,11.7c0,2.7-.1,4.9-.2,6.6a22.1,22.1,0,0,1-1.1,4.6,11.7,11.7,0,0,1-2.1,3.8,16.1,16.1,0,0,1-3.6,3.1,50.8,50.8,0,0,1-5.7,2.8l-2.2.5a7.4,7.4,0,0,1-2.2.5h-.2C409.6,313.3,408.3,312.8,408.3,311.9Zm8.5-44.8a16.6,16.6,0,0,0,3.6-5.1,40.1,40.1,0,0,0,2.2-6.1,25.4,25.4,0,0,0,.7-5.8,9.7,9.7,0,0,0-2.8-6.7,8,8,0,0,0-6.2-3.1c-1.9,0-2.8,1.4-2.8,4.3,0,4.5,0,8.6.2,12.2l.2,12.1h.3A6.9,6.9,0,0,0,416.8,267.1Zm3.1,40.2a14.5,14.5,0,0,0,4.9-5.5,15.9,15.9,0,0,0,1.8-7.4c0-12.1-3.1-19.3-9.4-21.8a15.1,15.1,0,0,0-2.8.5,12.4,12.4,0,0,1-2.5.7c.4,10.9.5,22.8.5,35.5h.7A11.9,11.9,0,0,0,419.9,307.3Z" transform="translate(-145.6 -216.8)"/><path d="M462.3,312.2a1.7,1.7,0,0,1-.6-1.2V297.7c0-.8-1.8-1.5-5.5-2.2a50.9,50.9,0,0,0-9.2-1c-.1,0-.3.5-.7,1.5a19.7,19.7,0,0,1-.7,2.2c-.9,3.5-1.9,7.3-2.8,11.3l-.6,2.2a1,1,0,0,1-1,.8,3,3,0,0,1-1.6-.5,1.5,1.5,0,0,1-.7-1.2v-.2h0l1.2-5.1c.9-3.2,1.6-6.3,2.3-9.3a55.5,55.5,0,0,1,1.6-6.7c.6-2.2,1.7-7.8,3.5-16.7l.6-3.3c1.9-10.4,3.2-16.9,3.9-19.6s1.1-4,2-7.2a32.5,32.5,0,0,1,1.5-4c.7-1.2,1.2-1.8,1.7-1.8a3.2,3.2,0,0,1,2.5,1c.3.7.9,4,1.7,10.1s1.4,12.2,2,18.4l1.4,16.8c0,2.9.2,7.2.6,13.1s.7,10.4.7,13.3v.4a6.4,6.4,0,0,1-.3,2,2.3,2.3,0,0,1-2.1.8A2.5,2.5,0,0,1,462.3,312.2Zm-.7-20c0-4.2-.2-9.9-.7-17.2s-1.1-13.6-1.7-19.1c-.1-2.4-.4-5-.8-7.8l-.5-4a4.2,4.2,0,0,1-.2-1.1l-.2-1.2a32.8,32.8,0,0,0-1.7,6.2c-.5,2.6-1.1,5.7-1.7,9.3-1.7,10-3.2,17.6-4.5,22.6l-.9,3.5A27.2,27.2,0,0,0,447,291v.7a40.8,40.8,0,0,0,11,1.4h1.4C460.9,293.2,461.6,292.8,461.6,292.2Z" transform="translate(-145.6 -216.8)"/><path d="M503.4,314.8l-2.2-.7a4,4,0,0,1-1.9-1.7,1.1,1.1,0,0,1,1.2-1.2,7.9,7.9,0,0,1,3,.7,8,8,0,0,0,2.9.8,6.4,6.4,0,0,0,4.4-1.8,10.8,10.8,0,0,0,3.1-4.8,28,28,0,0,0,2.2-10.2,35.2,35.2,0,0,0-1.5-10,47.5,47.5,0,0,0-4-9.5c-.4-.8-1-1.9-1.9-3.4-1.8-3.3-3.2-6-4.1-7.8a36,36,0,0,1-2.5-6.3,31,31,0,0,1-1.5-9.8,16.9,16.9,0,0,1,1.1-6.4,13.4,13.4,0,0,1,3.7-5.4,9.2,9.2,0,0,1,6-2.3,6.5,6.5,0,0,1,3.2,1q1.8.9,1.8,1.8t-.6.9a5.1,5.1,0,0,1-1.7-.5,3.8,3.8,0,0,0-1.9-.6,6.2,6.2,0,0,0-4.4,1.8,9.4,9.4,0,0,0-2.8,4.2,14.1,14.1,0,0,0-.7,4.7,29.2,29.2,0,0,0,1.1,8.1,38.1,38.1,0,0,0,2.9,7.8l3.8,7.4,1.1,2.2c1.5,2.9,2.7,5.2,3.5,7.1a28.3,28.3,0,0,1,2.1,6.4,37.4,37.4,0,0,1,1.2,9.1,24.5,24.5,0,0,1-3.2,11.9,13.6,13.6,0,0,1-4.4,4.8,10.6,10.6,0,0,1-6,1.8Z" transform="translate(-145.6 -216.8)"/><circle class="cls-1" cx="89.7" cy="89.7" r="89.1"/><path class="cls-2" d="M213.9,372.6c-4.6,0-8.3-5.2-8.3-11.6l-5.8-84.5a9.7,9.7,0,0,1,9.9-9.6h50.7a9.7,9.7,0,0,1,9.9,9.6L264.5,361c0,6.4-3.7,11.6-8.3,11.6Z" transform="translate(-145.6 -216.8)"/><rect x="84" y="23.5" width="11.3" height="26.73"/><polygon class="cls-3" points="49.8 57.8 53.2 49.3 126.1 49.3 129.5 57.8 49.8 57.8"/><ellipse class="cls-4" cx="106.9" cy="89.7" rx="12.4" ry="12"/><ellipse class="cls-1" cx="102.8" cy="86.4" rx="5" ry="4.8"/><ellipse class="cls-1" cx="111.9" cy="94.5" rx="1.6" ry="1.6"/><ellipse class="cls-4" cx="73.8" cy="89.7" rx="12.4" ry="12"/><ellipse class="cls-1" cx="77.9" cy="86.4" rx="5" ry="4.8"/><ellipse class="cls-1" cx="68.8" cy="94.5" rx="1.6" ry="1.6"/><path class="cls-4" d="M236.3,318.3" transform="translate(-145.6 -216.8)"/><path class="cls-4" d="M246.6,321.5H226a8.6,8.6,0,0,0,4.2,7.2,9,9,0,0,1,12.2,0A8.6,8.6,0,0,0,246.6,321.5Z" transform="translate(-145.6 -216.8)"/><path class="cls-5" d="M242.4,328.7a11.8,11.8,0,0,1-12.2,0" transform="translate(-145.6 -216.8)"/><path class="cls-5" d="M236.3,326.3a7.8,7.8,0,0,0-6.1,2.4,11.8,11.8,0,0,0,12.2,0A7.8,7.8,0,0,0,236.3,326.3Z" transform="translate(-145.6 -216.8)"/></svg>